<svg width="16" height="14" viewBox="0 0 16 14" fill="none" xmlns="http://www.w3.org/2000/svg">
<path d="M15.8199 12.0316C16.3326 12.9064 15.6891 14 14.665 14H1.33484C0.308813 14 -0.331798 12.9047 0.179925 12.0316L6.84509 0.65584C7.35806 -0.219406 8.64287 -0.21782 9.15492 0.65584L15.8199 12.0316V12.0316ZM8.00001 9.67969C7.29431 9.67969 6.72223 10.2428 6.72223 10.9375C6.72223 11.6322 7.29431 12.1953 8.00001 12.1953C8.7057 12.1953 9.27778 11.6322 9.27778 10.9375C9.27778 10.2428 8.7057 9.67969 8.00001 9.67969ZM6.78687 5.15851L6.99292 8.87726C7.00256 9.05127 7.14873 9.1875 7.32575 9.1875H8.67426C8.85128 9.1875 8.99745 9.05127 9.00709 8.87726L9.21314 5.15851C9.22356 4.97055 9.07153 4.8125 8.88031 4.8125H7.11967C6.92845 4.8125 6.77645 4.97055 6.78687 5.15851V5.15851Z" fill="#FF715B"/>
</svg>
